<svg version="1.1" xmlns="http://www.w3.org/2000/svg" style="display: block;" viewBox="0 0 2048 2048" width="1024" height="1024" preserveAspectRatio="none">
<defs>
	<linearGradient id="Gradient1" gradientUnits="userSpaceOnUse" x1="1856.67" y1="434.39" x2="1881.82" y2="435.113">
		<stop class="stop0" offset="0" stop-opacity="0" stop-color="rgb(0,0,0)"/>
		<stop class="stop1" offset="1" stop-opacity="0.0392157" stop-color="rgb(4,3,6)"/>
	</linearGradient>
</defs>
<path transform="translate(0,0)" fill="rgb(23,42,48)" d="M 603.382 269.27 C 603.756 269.249 604.13 269.228 604.504 269.207 C 659.011 269.086 713.665 269.376 768.156 269.226 L 1174.09 269.26 L 1351.01 269.242 C 1404.33 269.215 1454.98 265.899 1507.48 277.392 C 1567.39 290.507 1628.04 320.72 1672.35 362.844 C 1730.27 417.912 1763.51 488.62 1774.03 567.282 C 1775.75 580.199 1779.47 601.835 1779.34 614.469 C 1778.76 669.222 1778.88 723.988 1778.92 778.733 L 1778.9 1189.26 L 1778.83 1375.88 C 1778.79 1434.63 1781.22 1493.79 1769.45 1551.7 C 1759.63 1600.06 1730.35 1653.1 1696.04 1688.83 C 1641.28 1745.87 1573.42 1773.46 1495.18 1778.96 C 1481.64 1779.91 1459.5 1778.44 1444.45 1778.49 C 1241.21 1780.86 1034.36 1778.94 830.915 1778.95 L 631.516 1778.65 C 608.983 1778.58 586.494 1779.19 563.847 1778.96 C 506.593 1778.37 447.234 1762.07 399.883 1729.55 C 352.991 1697.34 319.749 1657.17 296.482 1605.69 C 261.128 1527.47 269.066 1439.66 269.105 1355.69 L 268.748 1096.9 L 268.668 761.572 L 269.266 671.267 C 269.287 654.103 267.936 635.407 268.733 618.466 C 273.007 527.636 297.096 449.306 358.738 380.87 C 405.527 328.85 467.641 293.052 536.108 278.646 C 559.552 273.516 581.526 272.936 603.382 269.27 z"/>
<path transform="translate(0,0)" fill="rgb(23,42,48)" d="M 861.859 472.237 C 880.039 470.22 905.814 471.024 924.751 471.03 L 1025.77 471.084 L 1127.01 471.118 C 1144.26 471.114 1169.48 470.379 1185.86 472.019 C 1223.92 469.391 1268.02 486.182 1290.35 518.14 C 1309.86 546.045 1307.16 575.251 1307.16 607.345 L 1307.1 695.732 L 1307.13 773.346 C 1307.14 788.184 1308.57 805.033 1305.68 819.563 C 1303.31 831.437 1296.88 842.807 1289.15 852.008 C 1245.47 904.033 1176.73 859.189 1130.21 890.465 C 1117.83 898.787 1108.76 911.696 1104.37 925.898 C 1091.84 966.51 1096.15 1044.01 1096.16 1088.52 L 1096.1 1256.46 C 1096.11 1276.16 1097.65 1321.68 1094.43 1338.23 C 1091.02 1356.38 1080.32 1372.33 1064.83 1382.37 C 1020.6 1411.23 956.988 1384.86 952.625 1330.24 C 951.257 1313.12 952.034 1293.98 952.03 1276.68 L 952.01 1175.92 L 952.016 1043.59 C 952.021 1015.96 951.492 989.216 953.216 961.607 C 955.152 930.58 962.159 908.339 968.907 878.966 C 921.488 878.365 873.499 879.538 826.035 878.952 C 801.695 878.651 779.185 873.61 761.918 855.34 C 752.312 845.246 745.735 832.657 742.936 819.007 C 740.133 805.136 740.904 786.678 740.929 772.115 L 741.051 711.454 C 741.1 664.913 740.59 618.351 741.091 571.816 C 741.785 507.318 802.038 469.21 861.859 472.237 z"/>
<path transform="translate(0,0)" fill="rgb(33,155,134)" d="M 1185.86 472.019 C 1223.92 469.391 1268.02 486.182 1290.35 518.14 C 1309.86 546.045 1307.16 575.251 1307.16 607.345 L 1307.1 695.732 L 1307.13 773.346 C 1307.14 788.184 1308.57 805.033 1305.68 819.563 C 1303.31 831.437 1296.88 842.807 1289.15 852.008 C 1245.47 904.033 1176.73 859.189 1130.21 890.465 C 1117.83 898.787 1108.76 911.696 1104.37 925.898 C 1091.84 966.51 1096.15 1044.01 1096.16 1088.52 L 1096.1 1256.46 C 1096.11 1276.16 1097.65 1321.68 1094.43 1338.23 C 1091.02 1356.38 1080.32 1372.33 1064.83 1382.37 C 1020.6 1411.23 956.988 1384.86 952.625 1330.24 C 951.257 1313.12 952.034 1293.98 952.03 1276.68 L 952.01 1175.92 L 952.016 1043.59 C 952.021 1015.96 951.492 989.216 953.216 961.607 C 955.152 930.58 962.159 908.339 968.907 878.966 C 921.488 878.365 873.499 879.538 826.035 878.952 C 801.695 878.651 779.185 873.61 761.918 855.34 C 752.312 845.246 745.735 832.657 742.936 819.007 C 740.133 805.136 740.904 786.678 740.929 772.115 L 741.051 711.454 C 741.1 664.913 740.59 618.351 741.091 571.816 C 741.785 507.318 802.038 469.21 861.859 472.237 C 846.074 479.854 837.309 489.472 833.694 506.845 C 782.406 539.902 784.231 536.234 784.437 596.426 L 784.608 661.106 L 784.595 753.102 C 784.593 769.671 784.325 786.158 785.016 802.72 C 786.105 828.858 804.188 833.206 826.259 833.356 C 896.451 833.005 968.87 832.482 1038.97 833.312 C 1037.51 835.862 1032.24 845.536 1030.63 847.091 C 994.963 925.022 997.836 963.347 997.933 1045.55 L 997.92 1178.33 L 997.869 1277.01 C 997.804 1299.8 988.543 1354.88 1029.07 1348.36 C 1056.42 1343.96 1050.58 1311.98 1050.82 1292.23 C 1050.95 1281.21 1050.72 1268.64 1050.71 1256.94 L 1050.76 1063.42 C 1050.78 976.435 1037.58 851.814 1153.2 834.648 C 1181.03 830.517 1212.38 836.366 1239.72 831.99 C 1268.54 827.38 1263.17 793.913 1263.18 771.529 L 1263.24 706.834 L 1263.29 613 C 1263.32 555.018 1273.42 536.366 1214.57 507.813 C 1211.37 487.71 1202.65 481.533 1185.86 472.019 z"/>
<path transform="translate(0,0)" fill="rgb(253,155,65)" d="M 861.859 472.237 C 880.039 470.22 905.814 471.024 924.751 471.03 L 1025.77 471.084 L 1127.01 471.118 C 1144.26 471.114 1169.48 470.379 1185.86 472.019 C 1202.65 481.533 1211.37 487.71 1214.57 507.813 C 1214.52 537.172 1216.5 587.043 1213.93 614.422 C 1206.27 625.099 1199.33 632.065 1185.28 632.504 C 1161.09 633.258 1136.84 632.942 1112.64 632.939 L 977.418 632.899 L 898.609 633.016 C 885.34 633.033 867.769 633.623 854.823 631.771 C 845.433 630.428 838.917 619.994 834.297 612.495 C 832.952 598.666 833.363 581.729 833.385 567.603 C 833.366 547.35 833.469 527.097 833.694 506.845 C 837.309 489.472 846.074 479.854 861.859 472.237 z"/>
<path transform="translate(0,0)" fill="rgb(33,155,134)" d="M 834.297 612.495 C 838.917 619.994 845.433 630.428 854.823 631.771 C 867.769 633.623 885.34 633.033 898.609 633.016 L 977.418 632.899 L 1112.64 632.939 C 1136.84 632.942 1161.09 633.258 1185.28 632.504 C 1199.33 632.065 1206.27 625.099 1213.93 614.422 C 1215.26 650.183 1214.09 686.827 1214.79 722.674 C 1215.42 755.257 1199.27 772.231 1166.58 772.388 L 962.918 772.409 L 901.86 772.562 C 883.647 772.606 865.464 775.346 850.269 764.096 C 833.615 751.767 833.199 731.675 833.396 713.094 C 833.754 679.542 833.103 645.95 834.297 612.495 z"/>
<path transform="translate(0,0)" fill="rgb(33,155,134)" d="M 1233.94 1198.34 C 1243.88 1212.44 1250.24 1223.9 1256.75 1239.72 C 1291.38 1321.76 1282.83 1408.78 1233.43 1482.39 C 1195.49 1537.91 1137.23 1576.28 1071.23 1589.2 C 1003.93 1602.36 937.685 1587.24 881.118 1548.75 C 825.736 1510.32 787.664 1451.67 775.102 1385.44 C 762.615 1320.35 776.929 1252.97 814.802 1198.58 C 826.047 1206.41 836.26 1213.64 847.09 1222.02 C 833.036 1244.26 822.96 1266.35 817.202 1292.06 C 804.504 1346.74 814.601 1404.23 845.17 1451.3 C 876.025 1499.48 924.789 1533.39 980.692 1545.56 C 1093.85 1569.49 1208.89 1495.56 1231.85 1381.99 C 1243.23 1326.92 1232.28 1269.59 1201.39 1222.59 C 1211.47 1213.74 1222.89 1205.94 1233.94 1198.34 z"/>
<path transform="translate(0,0)" fill="rgb(33,155,134)" d="M 881.038 1251.35 C 885.052 1252.88 908.031 1270.77 913.089 1274.59 C 910.602 1279.16 908.418 1283.89 906.551 1288.75 C 885.397 1345.37 910.54 1402.69 961.903 1431.69 C 1065.39 1490.14 1191.11 1385.89 1135.85 1274.47 C 1146.46 1267.06 1155.96 1258.26 1167.18 1251.12 C 1177.28 1266.36 1183.07 1280.61 1187.63 1298.23 C 1191.8 1318.03 1193.75 1335.62 1190.49 1355.68 C 1179.79 1421.41 1131.75 1472.87 1067.93 1489.76 C 1024.01 1501.45 977.249 1495.08 938.059 1472.07 C 898.282 1448.49 870.876 1411.76 860.616 1366.87 C 850.956 1324.6 859.145 1287.87 881.038 1251.35 z"/>
<path transform="translate(0,0)" fill="url(#Gradient1)" d="M 1862.18 421.392 C 1875.93 425.602 1860.33 426.963 1882.63 426.789 C 1883.64 428.654 1883.46 427.612 1882.83 429.954 C 1875.74 428.631 1874.74 430.358 1867.81 432.565 C 1861.28 433.055 1868.96 445.082 1860.07 448.751 L 1859.05 448.01 C 1860.83 437.065 1857.25 429.863 1858.29 423.371 L 1862.18 421.392 z"/>
<path transform="translate(0,0)" fill="rgb(0,0,1)" fill-opacity="0.0196078" d="M 1788.47 1489.08 L 1789.42 1488.53 C 1789.05 1491.41 1788.59 1493.42 1789.11 1496.29 C 1791.81 1497.37 1791.63 1497.31 1793.72 1499.35 L 1792.9 1500.41 L 1788.28 1499.08 C 1786.84 1500.09 1787.71 1499.78 1785.58 1499.62 C 1786.05 1497.45 1785.99 1492.98 1786.16 1490.48 L 1788.47 1489.08 z"/>
</svg>
