<svg width="1024" height="1024" viewBox="0 0 1024 1024" fill="none" xmlns="http://www.w3.org/2000/svg">
  <rect width="1024" height="1024" fill="#2f474b"/>
  <rect x="117" y="134" width="790" height="792" rx="210" fill="#121f26"/>
  <path d="M364 640C364 721.74 430.26 788 512 788C593.74 788 660 721.74 660 640" stroke="#2a5d61" stroke-width="22" stroke-linecap="round"/>
  <path d="M414 640C414 694.124 457.876 738 512 738C566.124 738 610 694.124 610 640" stroke="#2a5d61" stroke-width="22" stroke-linecap="round"/>
  <path d="M464 640C464 666.51 485.49 688 512 688C538.51 688 560 666.51 560 640" stroke="#2a5d61" stroke-width="22" stroke-linecap="round"/>
  <path d="M512 235V640" stroke="#2a5d61" stroke-width="22" stroke-linecap="round"/>
  <path d="M371 275V408C371 458.81 412.19 500 463 500H561C611.81 500 653 458.81 653 408V275" stroke="#2a5d61" stroke-width="22" stroke-linecap="round" stroke-linejoin="round"/>
  <rect x="417" y="235" width="190" height="81" rx="16" fill="#e68b3f"/>
  <rect x="417" y="386" width="190" height="29" rx="4" fill="#142f3b"/>
</svg>